<svg version="1.1" xmlns="http://www.w3.org/2000/svg" xmlns:xlink="http://www.w3.org/1999/xlink" width="61.39046" height="61.39046" viewBox="0,0,61.39046,61.39046"><g transform="translate(-209.30477,-149.30477)"><g data-paper-data="{&quot;isPaintingLayer&quot;:true}" fill="none" fill-rule="nonzero" stroke-linejoin="miter" stroke-miterlimit="10" stroke-dasharray="" stroke-dashoffset="0" style="mix-blend-mode: normal"><path d="M209.30477,210.69523v-61.39046h61.39046v61.39046z" stroke="none" stroke-width="0" stroke-linecap="butt"/><g stroke="#000000" stroke-width="5" stroke-linecap="round"><path d="M228.23856,165.13811h32.80282"/><path d="M219.67066,164.89331v0"/></g><g stroke="#000000" stroke-width="5" stroke-linecap="round"><path d="M228.34262,174.78926h32.80282"/><path d="M219.77472,174.54446v0"/></g><g stroke="#000000" stroke-width="5" stroke-linecap="round"><path d="M228.44667,183.70601h32.80282"/><path d="M219.87877,183.46121v0"/></g><g stroke="#000000" stroke-width="5" stroke-linecap="round"><path d="M228.44667,193.0083h32.80282"/><path d="M219.87877,192.7635v0"/></g><path d="M217.60106,180c0,-12.37059 10.02835,-22.39894 22.39894,-22.39894c12.37059,0 22.39894,10.02835 22.39894,22.39894c0,12.37059 -10.02835,22.39894 -22.39894,22.39894c-12.37059,0 -22.39894,-10.02835 -22.39894,-22.39894z" stroke="#ff0000" stroke-width="5" stroke-linecap="butt"/><path d="M224.8114,163.42453l32.06843,32.06843" stroke="#ff0000" stroke-width="5" stroke-linecap="round"/><path d="M255.97302,164.02698l-31.94603,31.94603" stroke="#ff0000" stroke-width="5" stroke-linecap="round"/></g></g></svg>