<svg version="1.1" xmlns="http://www.w3.org/2000/svg" xmlns:xlink="http://www.w3.org/1999/xlink" width="61.39046" height="61.39046" viewBox="0,0,61.39046,61.39046"><g transform="translate(-209.30477,-149.30477)"><g data-paper-data="{&quot;isPaintingLayer&quot;:true}" fill-rule="nonzero" stroke-linejoin="miter" stroke-miterlimit="10" stroke-dasharray="" stroke-dashoffset="0" style="mix-blend-mode: normal"><path d="M209.30477,210.69523v-61.39046h61.39046v61.39046z" fill="none" stroke="none" stroke-width="0" stroke-linecap="butt"/><path d="M217.698,180c0,-12.31706 9.98495,-22.30201 22.30201,-22.30201c12.31706,0 22.30201,9.98495 22.30201,22.30201c0,12.31706 -9.98495,22.30201 -22.30201,22.30201c-12.31706,0 -22.30201,-9.98495 -22.30201,-22.30201z" fill="none" stroke="#000000" stroke-width="5" stroke-linecap="butt"/><path d="M233.23881,176.53596l3.46404,-2.66464l-3.46404,-3.10875" fill="none" stroke="#000000" stroke-width="2.5" stroke-linecap="round"/><path d="M246.61024,176.62857l-3.17537,-2.95794l3.17537,-2.81546" fill="none" stroke="#000000" stroke-width="2.5" stroke-linecap="round"/><path d="M246.80629,181.15468l1.44335,13.56748" fill="none" stroke="#00c7ff" stroke-width="2.5" stroke-linecap="round"/><path d="M231.88807,194.81478l1.44335,-13.56748" data-paper-data="{&quot;index&quot;:null}" fill="none" stroke="#00c7ff" stroke-width="2.5" stroke-linecap="round"/><path d="M250.84767,193.27881c0,0 -1.75058,-2.88991 -4.0772,-5.04109c-2.02306,-1.87051 -4.48165,-3.04166 -6.60359,-3.04166c-2.32123,0 -5.40872,0.93767 -7.59825,2.99324c-2.11389,1.98456 -3.3712,5.08951 -3.3712,5.08951z" fill="#000000" stroke="#000000" stroke-width="2.5" stroke-linecap="round"/></g></g></svg>