<svg version="1.1" xmlns="http://www.w3.org/2000/svg" xmlns:xlink="http://www.w3.org/1999/xlink" width="61.39046" height="61.39046" viewBox="0,0,61.39046,61.39046"><g transform="translate(-209.30477,-149.30477)"><g data-paper-data="{&quot;isPaintingLayer&quot;:true}" fill="none" fill-rule="nonzero" stroke-linejoin="miter" stroke-miterlimit="10" stroke-dasharray="" stroke-dashoffset="0" style="mix-blend-mode: normal"><path d="M209.30477,210.69523v-61.39046h61.39046v61.39046z" stroke="none" stroke-width="0" stroke-linecap="butt"/><path d="M217.698,180c0,-12.31706 9.98495,-22.30201 22.30201,-22.30201c12.31706,0 22.30201,9.98495 22.30201,22.30201c0,12.31706 -9.98495,22.30201 -22.30201,22.30201c-12.31706,0 -22.30201,-9.98495 -22.30201,-22.30201z" stroke="#000000" stroke-width="5" stroke-linecap="butt"/><path d="M229.19743,190.96945c0,0 1.25731,-1.55248 3.3712,-2.54476c2.18954,-1.02779 5.27702,-1.49662 7.59825,-1.49662c2.12194,0 4.58053,0.58557 6.60359,1.52083c2.32662,1.07559 4.0772,2.52055 4.0772,2.52055" stroke="#000000" stroke-width="2.5" stroke-linecap="round"/><path d="M233.23881,177.40197v-7.50542" stroke="#000000" stroke-width="2.5" stroke-linecap="round"/><path d="M246.61024,177.49458v-7.50541" stroke="#000000" stroke-width="2.5" stroke-linecap="round"/><path d="M231.21812,163.54582l6.92808,6.92808" stroke="#000000" stroke-width="2.5" stroke-linecap="round"/><path d="M248.05359,163.63843l-6.92808,6.92808" data-paper-data="{&quot;index&quot;:null}" stroke="#000000" stroke-width="2.5" stroke-linecap="round"/></g></g></svg>