<svg version="1.1" xmlns="http://www.w3.org/2000/svg" xmlns:xlink="http://www.w3.org/1999/xlink" width="61.39046" height="61.39046" viewBox="0,0,61.39046,61.39046"><g transform="translate(-209.30477,-149.30477)"><g data-paper-data="{&quot;isPaintingLayer&quot;:true}" fill-rule="nonzero" stroke-linejoin="miter" stroke-miterlimit="10" stroke-dasharray="" stroke-dashoffset="0" style="mix-blend-mode: normal"><path d="M209.30477,210.69523v-61.39046h61.39046v61.39046z" fill="none" stroke="none" stroke-width="0" stroke-linecap="butt"/><path d="M217.698,180c0,-12.31706 9.98495,-22.30201 22.30201,-22.30201c12.31706,0 22.30201,9.98495 22.30201,22.30201c0,12.31706 -9.98495,22.30201 -22.30201,22.30201c-12.31706,0 -22.30201,-9.98495 -22.30201,-22.30201z" fill="none" stroke="#000000" stroke-width="5" stroke-linecap="butt"/><path d="M253.27584,186.72433h-26.14055c0,0 -0.15711,9.25526 11.97261,9.3821c14.29332,0.14947 14.16794,-9.3821 14.16794,-9.3821z" fill="#000000" stroke="#000000" stroke-width="2.5" stroke-linecap="round"/><path d="M245.96132,180.43032v-12.07329h12.07329v12.07329z" fill="none" stroke="#000000" stroke-width="2.5" stroke-linecap="butt"/><path d="M222.13539,180.28687v-12.07329h12.07329v12.07329z" fill="none" stroke="#000000" stroke-width="2.5" stroke-linecap="butt"/><path d="M235.1313,174.92096h9.63375" fill="none" stroke="#000000" stroke-width="2.5" stroke-linecap="round"/><path d="M230.71952,170.91727v6.63941" fill="none" stroke="#000000" stroke-width="2.5" stroke-linecap="round"/><path d="M248.89628,170.97598v6.6394" fill="none" stroke="#000000" stroke-width="2.5" stroke-linecap="round"/><path d="M228.38854,187.87126l23.60837,0" fill="none" stroke="#ffffff" stroke-width="2.5" stroke-linecap="round"/><path d="M236.07499,195.92372c0,0 1.35607,-2.92817 3.4772,-2.92817c2.12113,0 3.66021,2.92817 3.66021,2.92817c0,0 -2.44675,0.18301 -3.4772,0.18301c-1.15208,0 -3.66021,-0.18301 -3.66021,-0.18301z" fill="#ff004a" stroke="#ff004a" stroke-width="2.5" stroke-linecap="round"/></g></g></svg>