<svg version="1.1" xmlns="http://www.w3.org/2000/svg" xmlns:xlink="http://www.w3.org/1999/xlink" width="61.39046" height="61.39046" viewBox="0,0,61.39046,61.39046"><g transform="translate(-209.30476,-149.30477)"><g data-paper-data="{&quot;isPaintingLayer&quot;:true}" fill="none" fill-rule="nonzero" stroke-linejoin="miter" stroke-miterlimit="10" stroke-dasharray="" stroke-dashoffset="0" style="mix-blend-mode: normal"><path d="M209.30477,210.69523v-61.39046h61.39046v61.39046z" stroke="none" stroke-width="0" stroke-linecap="butt"/><path d="M217.698,180c0,-12.31706 9.98495,-22.30201 22.30201,-22.30201c12.31706,0 22.30201,9.98495 22.30201,22.30201c0,12.31706 -9.98495,22.30201 -22.30201,22.30201c-12.31706,0 -22.30201,-9.98495 -22.30201,-22.30201z" stroke="#000000" stroke-width="5" stroke-linecap="butt"/><path d="M230.1712,168.65515l6.2698,5.01585l-6.77139,5.51743" stroke="#000000" stroke-width="2.5" stroke-linecap="round"/><path d="M250.22552,179.24714l-6.77139,-5.51743l6.2698,-5.01585" data-paper-data="{&quot;index&quot;:null}" stroke="#000000" stroke-width="2.5" stroke-linecap="round"/><path d="M226.00941,187.32223h28.18363c0,0 -5.68272,8.96752 -14.27483,8.96752c-8.95813,0 -13.9088,-8.96752 -13.9088,-8.96752z" stroke="#000000" stroke-width="2.5" stroke-linecap="round"/></g></g></svg>