<svg version="1.1" xmlns="http://www.w3.org/2000/svg" xmlns:xlink="http://www.w3.org/1999/xlink" width="61.39046" height="61.39046" viewBox="0,0,61.39046,61.39046"><g transform="translate(-209.30477,-149.30477)"><g data-paper-data="{&quot;isPaintingLayer&quot;:true}" fill-rule="nonzero" stroke-linejoin="miter" stroke-miterlimit="10" stroke-dasharray="" stroke-dashoffset="0" style="mix-blend-mode: normal"><path d="M209.30477,210.69523v-61.39046h61.39046v61.39046z" fill="none" stroke="none" stroke-width="0" stroke-linecap="butt"/><path d="M227.56559,179.04077c0,0 7.00894,6.21721 12.43441,6.21721c5.42547,0 12.43441,-6.21721 12.43441,-6.21721" fill="none" stroke="#000000" stroke-width="5" stroke-linecap="round"/><path d="M240,185.67246v16.86935" fill="none" stroke="#000000" stroke-width="5" stroke-linecap="round"/><path d="M245.79088,167.76987c0,5.69498 -2.68413,10.31168 -5.99516,10.31168c-3.31104,0 -5.99516,-4.6167 -5.99516,-10.31168c0,-5.69498 2.68413,-10.31168 5.99516,-10.31168c3.31104,0 5.99516,4.6167 5.99516,10.31168z" fill="#000000" stroke="#000000" stroke-width="5" stroke-linecap="butt"/><path d="M253.72901,161.38606c0,-3.44348 2.79149,-6.23497 6.23497,-6.23497c3.44348,0 6.23497,2.79149 6.23497,6.23497c0,3.44348 -2.79149,6.23497 -6.23497,6.23497c-3.44348,0 -6.23497,-2.79149 -6.23497,-6.23497z" fill="#ff0000" stroke="none" stroke-width="0" stroke-linecap="butt"/></g></g></svg>