<svg version="1.1" xmlns="http://www.w3.org/2000/svg" xmlns:xlink="http://www.w3.org/1999/xlink" width="61.39046" height="61.39046" viewBox="0,0,61.39046,61.39046"><g transform="translate(-209.30477,-149.30477)"><g data-paper-data="{&quot;isPaintingLayer&quot;:true}" fill="none" fill-rule="nonzero" stroke-linejoin="miter" stroke-miterlimit="10" stroke-dasharray="" stroke-dashoffset="0" style="mix-blend-mode: normal"><path d="M209.30477,210.69523v-61.39046h61.39046v61.39046z" stroke="none" stroke-width="0" stroke-linecap="butt"/><path d="M216.97858,194.14858v-28.29716h46.04284v28.29716z" stroke="#000000" stroke-width="5" stroke-linecap="butt"/><path d="M262.36205,167.38122l-22.0622,12.46994l-23.02142,-13.90877" stroke="#000000" stroke-width="5" stroke-linecap="round"/><path d="M232.62604,176.97348l-14.38839,15.82723" stroke="#000000" stroke-width="5" stroke-linecap="round"/><path d="M247.49404,176.01426l12.94955,15.34761" stroke="#000000" stroke-width="5" stroke-linecap="round"/><path d="M221.07136,161.07136l37.85727,37.85727" stroke="#ff0000" stroke-width="5.5" stroke-linecap="round"/><path d="M221.07136,198.92864l37.85727,-37.85727" data-paper-data="{&quot;index&quot;:null}" stroke="#ff0000" stroke-width="5.5" stroke-linecap="round"/><path d="M212.70512,180c0,-15.07455 12.22034,-27.29488 27.29488,-27.29488c15.07455,0 27.29488,12.22034 27.29488,27.29488c0,15.07455 -12.22034,27.29488 -27.29488,27.29488c-15.07455,0 -27.29488,-12.22034 -27.29488,-27.29488z" stroke="#ff0000" stroke-width="5.5" stroke-linecap="butt"/></g></g></svg>